<?xml version="1.0" standalone="no"?>
<!DOCTYPE svg PUBLIC "-//W3C//DTD SVG 20010904//EN"
 "http://www.w3.org/TR/2001/REC-SVG-20010904/DTD/svg10.dtd">
<svg version="1.0" xmlns="http://www.w3.org/2000/svg"
 width="200.000000pt" height="200.000000pt" viewBox="0 0 200.000000 200.000000"
 preserveAspectRatio="xMidYMid meet">
<metadata>
Created by potrace 1.11, written by Peter Selinger 2001-2013
</metadata>
<g transform="translate(0.000000,200.000000) scale(0.100000,-0.100000)"
fill="#000000" stroke="none">
<path d="M873 1624 c-63 -13 -185 -62 -191 -76 -2 -4 -8 -8 -14 -8 -11 0 -70
-46 -124 -96 -72 -68 -150 -215 -170 -321 -9 -49 -10 -197 -1 -245 4 -20 18
-66 31 -102 69 -183 210 -316 401 -382 110 -37 264 -39 375 -5 210 65 360 211
426 415 22 66 27 101 28 191 1 95 -3 122 -28 197 -84 259 -313 433 -579 442
-51 2 -120 -3 -154 -10z"/>
</g>
</svg>
